<mxfile host="app.diagrams.net" modified="2023-08-29T11:09:13.550Z" agent="Mozilla/5.0 (Macintosh; Intel Mac OS X 10_15_7) AppleWebKit/537.36 (KHTML, like Gecko) Chrome/116.0.0.0 Safari/537.36" version="21.6.9" etag="TuycVBHxD0Ud7RnVP6wr" type="github">
  <diagram name="ページ1" id="ChkdRTG39IVX_a44MbCV">
    <mxGraphModel>
      <root>
        <mxCell id="0" />
        <mxCell id="1" parent="0" />
      </root>
    </mxGraphModel>
  </diagram>
</mxfile>
